<?xml version="1.0" encoding="UTF-8" standalone="no"?>
<svg
   xmlns:dc="http://purl.org/dc/elements/1.1/"
   xmlns:cc="http://creativecommons.org/ns#"
   xmlns:rdf="http://www.w3.org/1999/02/22-rdf-syntax-ns#"
   xmlns:svg="http://www.w3.org/2000/svg"
   xmlns="http://www.w3.org/2000/svg"
   xmlns:sodipodi="http://sodipodi.sourceforge.net/DTD/sodipodi-0.dtd"
   xmlns:inkscape="http://www.inkscape.org/namespaces/inkscape"
   viewBox="0 0 384 512"
   version="1.1"
   id="svg4"
   sodipodi:docname="award-solid.svg"
   inkscape:version="0.92.5 (2060ec1f9f, 2020-04-08)">
  <metadata
     id="metadata10">
    <rdf:RDF>
      <cc:Work
         rdf:about="">
        <dc:format>image/svg+xml</dc:format>
        <dc:type
           rdf:resource="http://purl.org/dc/dcmitype/StillImage" />
      </cc:Work>
    </rdf:RDF>
  </metadata>
  <defs
     id="defs8" />
  <sodipodi:namedview
     pagecolor="#ffffff"
     bordercolor="#666666"
     borderopacity="1"
     objecttolerance="10"
     gridtolerance="10"
     guidetolerance="10"
     inkscape:pageopacity="0"
     inkscape:pageshadow="2"
     inkscape:window-width="858"
     inkscape:window-height="480"
     id="namedview6"
     showgrid="false"
     inkscape:zoom="0.4609375"
     inkscape:cx="192"
     inkscape:cy="256"
     inkscape:window-x="0"
     inkscape:window-y="40"
     inkscape:window-maximized="0"
     inkscape:current-layer="svg4" />
  <!--! Font Awesome Pro 6.3.0 by @fontawesome - https://fontawesome.com License - https://fontawesome.com/license (Commercial License) Copyright 2023 Fonticons, Inc. -->
  <path
     d="m 181.20568,107.38177 c 6.5269,-4.33148 15.07121,-4.33148 21.59811,0 l 10.56171,6.94225 c 3.56012,2.31408 7.7136,3.44146 11.92642,3.20412 l 12.63845,-0.77136 c 7.83228,-0.47469 15.18988,3.79746 18.69067,10.79905 l 5.69621,11.33307 c 1.89873,3.79747 4.98417,6.82358 8.72231,8.72231 l 11.45174,5.75554 c 7.00158,3.50079 11.27374,10.85839 10.79905,18.69067 l -0.77136,12.63845 c -0.23734,4.21282 0.89003,8.42563 3.20412,11.92643 l 7.00158,10.56171 c 4.33149,6.5269 4.33149,15.0712 0,21.5981 l -7.00158,10.62105 c -2.31409,3.56013 -3.44146,7.71361 -3.20412,11.92642 l 0.77136,12.63846 c 0.47469,7.83228 -3.79747,15.18987 -10.79905,18.69066 l -11.33307,5.69621 c -3.79747,1.89873 -6.82358,4.98418 -8.72231,8.72231 l -5.75554,11.45174 c -3.50079,7.00159 -10.85839,11.27374 -18.69067,10.79905 l -12.63845,-0.77136 c -4.21282,-0.23734 -8.42564,0.89004 -11.92643,3.20412 l -10.56171,7.00158 c -6.5269,4.33149 -15.0712,4.33149 -21.5981,0 l -10.62105,-7.00158 c -3.56013,-2.31408 -7.71361,-3.44146 -11.92643,-3.20412 l -12.63845,0.77136 c -7.83228,0.47469 -15.18987,-3.79746 -18.69067,-10.79905 l -5.6962,-11.33307 c -1.89873,-3.79747 -4.98418,-6.82358 -8.72231,-8.72231 l -11.45174,-5.75554 C 94.516582,279.21725 90.24443,271.85965 90.719113,264.02737 l 0.771361,-12.63845 c 0.237342,-4.21282 -0.890032,-8.42563 -3.204114,-11.92643 l -6.942249,-10.62104 c -4.331488,-6.5269 -4.331488,-15.07121 0,-21.59811 l 6.942249,-10.56171 c 2.314082,-3.56013 3.441456,-7.71361 3.204114,-11.92642 l -0.771361,-12.63846 c -0.474683,-7.83228 3.797469,-15.18987 10.799057,-18.69066 l 11.33307,-5.69621 c 3.79747,-1.95807 6.88291,-5.04351 8.78164,-8.84098 l 5.69621,-11.33307 c 3.50079,-7.00159 10.85839,-11.27374 18.69067,-10.79905 l 12.63845,0.77136 c 4.21281,0.23734 8.42563,-0.89004 11.92642,-3.20412 z m 58.26742,110.66062 a 47.468365,47.468365 0 1 0 -94.93673,0 47.468365,47.468365 0 1 0 94.93673,0 z M 78.852022,366.26236 104.4256,305.44352 c 0.11867,0.0593 0.17801,0.11867 0.23734,0.23734 l 5.69621,11.33307 c 6.94225,13.76583 21.36076,22.13213 36.78798,21.24209 l 12.63845,-0.77136 c 0.11867,0 0.29668,0 0.41535,0.11867 l 10.56171,7.00159 c 3.02611,1.95807 6.23022,3.50079 9.55301,4.56883 l -22.31013,52.98656 c -1.36472,3.26345 -4.39083,5.45886 -7.89162,5.75554 -3.50079,0.29667 -6.88291,-1.30538 -8.78164,-4.27216 l -19.10602,-29.25237 -33.28719,4.92484 c -3.382121,0.47468 -6.764242,-0.89003 -8.900319,-3.56013 -2.136076,-2.67009 -2.551424,-6.34889 -1.246044,-9.49367 z m 147.151928,35.83861 -22.31013,-52.92722 c 3.32278,-1.06804 6.5269,-2.55143 9.553,-4.56883 l 10.56172,-7.00159 c 0.11867,-0.0593 0.23734,-0.11867 0.41534,-0.11867 l 12.63846,0.77136 c 15.42721,0.89004 29.84573,-7.47626 36.78798,-21.24209 l 5.6962,-11.33307 c 0.0593,-0.11867 0.11867,-0.17801 0.23734,-0.23734 l 25.63292,60.81884 c 1.30538,3.14478 0.83069,6.76424 -1.24605,9.49367 -2.07674,2.72943 -5.51819,4.09415 -8.90031,3.56013 l -33.28719,-4.92484 -19.10602,29.19304 c -1.89873,2.96677 -5.28086,4.56883 -8.78165,4.27215 -3.50079,-0.29668 -6.5269,-2.55142 -7.89161,-5.75554 z"
     id="path2"
     inkscape:connector-curvature="0"
     style="stroke-width:0.59335452;fill:#ffffff" />
</svg>
