<?xml version="1.0" encoding="UTF-8" standalone="no"?>
<!-- Created with Inkscape (http://www.inkscape.org/) -->

<svg
   xmlns:dc="http://purl.org/dc/elements/1.1/"
   xmlns:cc="http://creativecommons.org/ns#"
   xmlns:rdf="http://www.w3.org/1999/02/22-rdf-syntax-ns#"
   xmlns:svg="http://www.w3.org/2000/svg"
   xmlns="http://www.w3.org/2000/svg"
   xmlns:sodipodi="http://sodipodi.sourceforge.net/DTD/sodipodi-0.dtd"
   xmlns:inkscape="http://www.inkscape.org/namespaces/inkscape"
   width="210mm"
   height="210mm"
   viewBox="0 0 210 210"
   version="1.1"
   id="svg8"
   inkscape:version="0.92.5 (2060ec1f9f, 2020-04-08)"
   sodipodi:docname="ruby.svg">
  <defs
     id="defs2">
    <filter
       style="color-interpolation-filters:sRGB"
       inkscape:label="Invert"
       id="filter846">
      <feColorMatrix
         values="1 0 0 0 0 0 1 0 0 0 0 0 1 0 0 -0.21 -0.72 -0.07 2 0 "
         result="fbSourceGraphic"
         id="feColorMatrix844" />
      <feColorMatrix
         result="fbSourceGraphicAlpha"
         in="fbSourceGraphic"
         values="0 0 0 -1 0 0 0 0 -1 0 0 0 0 -1 0 0 0 0 1 0"
         id="feColorMatrix872" />
      <feColorMatrix
         id="feColorMatrix874"
         type="hueRotate"
         values="180"
         result="color1"
         in="fbSourceGraphic" />
      <feColorMatrix
         id="feColorMatrix876"
         values="0 0 -1 0 1 0 -1 0 0 1 -1 0 0 0 1 -0.21 -0.72 -0.07 2 0 "
         result="color2" />
    </filter>
  </defs>
  <sodipodi:namedview
     id="base"
     pagecolor="#ffffff"
     bordercolor="#666666"
     borderopacity="1.0"
     inkscape:pageopacity="0.0"
     inkscape:pageshadow="2"
     inkscape:zoom="0.49497475"
     inkscape:cx="-142.00144"
     inkscape:cy="710.02856"
     inkscape:document-units="mm"
     inkscape:current-layer="layer1"
     showgrid="false"
     showguides="false"
     inkscape:window-width="2560"
     inkscape:window-height="1015"
     inkscape:window-x="0"
     inkscape:window-y="40"
     inkscape:window-maximized="1" />
  <metadata
     id="metadata5">
    <rdf:RDF>
      <cc:Work
         rdf:about="">
        <dc:format>image/svg+xml</dc:format>
        <dc:type
           rdf:resource="http://purl.org/dc/dcmitype/StillImage" />
        <dc:title />
      </cc:Work>
    </rdf:RDF>
  </metadata>
  <g
     inkscape:label="Camada 1"
     inkscape:groupmode="layer"
     id="layer1"
     transform="translate(0,-87)">
    <g
       id="g930"
       transform="matrix(0.56264748,0,0,0.57379713,-40.241718,48.60392)">
      <path
         id="path900"
         d="m 295.802,226.195 c -0.075,0.348 -0.166,0.789 -0.227,1.081 l -2.63,12.306 2.767,-12.965 0.09,-0.422"
         inkscape:connector-curvature="0"
         style="fill:#5da3c2" />
      <polyline
         id="polyline902"
         points="217.02,234.431 215.568,239.573 217.02,234.433 217.02,234.431  "
         style="fill:#5da3c2" />
      <path
         id="path904"
         d="m 94.4,121.88 h 4.44 c 0.48,0 1.411,-0.15 2.791,-0.45 0.695,-0.136 1.264,-0.48 1.705,-1.039 0.443,-0.558 0.664,-1.195 0.664,-1.915 0,-1.066 -0.348,-1.885 -1.045,-2.457 -0.697,-0.572 -2.007,-0.858 -3.927,-0.858 H 94.4 v 6.719 M 83.84,143 v -34.56 h 17.528 c 3.255,0 5.742,0.277 7.459,0.832 1.718,0.556 3.103,1.582 4.154,3.082 1.054,1.5 1.579,3.325 1.579,5.475 0,1.881 -0.41,3.5 -1.229,4.859 -0.82,1.361 -1.948,2.467 -3.383,3.316 -0.915,0.535 -2.168,0.98 -3.757,1.335 1.225,0.449 2.117,0.899 2.677,1.349 0.38,0.307 0.931,0.952 1.651,1.937 0.72,0.984 1.2,1.745 1.44,2.28 L 117.441,143 h -11.739 l -5.887,-10.845 c -0.714,-1.406 -1.351,-2.315 -1.905,-2.729 -0.76,-0.551 -1.62,-0.825 -2.58,-0.825 H 94.4 V 143 Z"
         inkscape:connector-curvature="0"
         style="fill:#ffffff" />
      <path
         id="path906"
         d="m 145.521,143 h -8.963 v -4.215 c -1.331,1.695 -2.67,2.901 -4.024,3.618 -1.352,0.718 -3.016,1.077 -4.99,1.077 -2.626,0 -4.686,-0.785 -6.182,-2.355 -1.495,-1.57 -2.242,-3.988 -2.242,-7.253 V 118.04 h 9.6 v 13.508 c 0,1.541 0.288,2.633 0.865,3.281 0.579,0.647 1.392,0.971 2.441,0.971 1.14,0 2.075,-0.43 2.802,-1.293 0.728,-0.862 1.092,-2.412 1.092,-4.647 v -11.82 h 9.6 V 143"
         inkscape:connector-curvature="0"
         style="fill:#ffffff" />
      <path
         id="path908"
         d="m 160.813,130.363 c 0,2.414 0.399,4.165 1.196,5.249 0.797,1.086 1.809,1.627 3.035,1.627 1.129,0 2.078,-0.532 2.845,-1.602 0.769,-1.067 1.152,-2.86 1.152,-5.38 0,-2.226 -0.375,-3.858 -1.129,-4.898 -0.752,-1.039 -1.662,-1.56 -2.725,-1.56 -1.291,0 -2.343,0.543 -3.155,1.629 -0.812,1.084 -1.219,2.729 -1.219,4.935 m -9.532,-21.923 h 9.6 v 11.744 c 0.955,-0.875 2.037,-1.531 3.247,-1.969 1.21,-0.438 2.547,-0.656 4.012,-0.656 3.036,0 5.545,1.088 7.526,3.26 1.982,2.172 2.974,5.289 2.974,9.349 0,2.71 -0.452,5.097 -1.357,7.159 -0.904,2.063 -2.157,3.603 -3.76,4.622 -1.603,1.02 -3.38,1.531 -5.33,1.531 -1.669,0 -3.2,-0.32 -4.589,-0.961 -1.045,-0.5 -2.186,-1.44 -3.42,-2.819 v 3.3 h -8.903 z"
         inkscape:connector-curvature="0"
         style="fill:#ffffff" />
      <path
         id="path910"
         d="m 180.56,118.04 h 9.84 l 5.28,16.62 4.982,-16.62 h 9.178 l -9.869,26.632 c -1.115,3.036 -2.252,5.086 -3.414,6.151 -1.64,1.505 -4.14,2.256 -7.5,2.256 -1.36,0 -3.464,-0.177 -6.314,-0.531 L 182,146.128 c 1.356,0.475 2.863,0.712 4.523,0.712 1.105,0 2,-0.281 2.685,-0.844 0.686,-0.563 1.266,-1.566 1.74,-3.011 L 180.56,118.04"
         inkscape:connector-curvature="0"
         style="fill:#ffffff" />
      <path
         id="path912"
         d="m 237.201,130.505 c 0,2.295 0.435,3.991 1.301,5.089 0.868,1.097 1.959,1.646 3.274,1.646 1.324,0 2.414,-0.54 3.266,-1.623 0.852,-1.082 1.279,-2.819 1.279,-5.209 0,-2.225 -0.43,-3.883 -1.289,-4.973 -0.861,-1.09 -1.923,-1.635 -3.189,-1.635 -1.344,0 -2.454,0.552 -3.329,1.657 -0.875,1.105 -1.313,2.788 -1.313,5.048 m -9.601,0.084 c 0,-3.78 1.27,-6.898 3.806,-9.351 2.538,-2.452 5.966,-3.679 10.287,-3.679 4.935,0 8.667,1.44 11.19,4.32 2.026,2.32 3.037,5.178 3.037,8.572 0,3.811 -1.257,6.935 -3.771,9.372 -2.516,2.438 -5.992,3.656 -10.432,3.656 -3.966,0 -7.171,-1.013 -9.616,-3.038 -3.001,-2.503 -4.501,-5.789 -4.501,-9.852 z"
         inkscape:connector-curvature="0"
         style="fill:#ffffff" />
      <path
         id="path914"
         d="m 260.722,118.04 h 8.939 v 4.223 c 1.33,-1.686 2.674,-2.891 4.034,-3.614 1.36,-0.726 3.021,-1.089 4.98,-1.089 2.64,0 4.707,0.785 6.203,2.354 1.493,1.571 2.241,3.995 2.241,7.274 V 143 h -9.6 v -13.522 c 0,-1.545 -0.289,-2.638 -0.865,-3.277 -0.577,-0.641 -1.393,-0.961 -2.441,-0.961 -1.156,0 -2.094,0.433 -2.814,1.299 -0.72,0.864 -1.079,2.414 -1.079,4.649 V 143 h -9.599 v -24.96"
         inkscape:connector-curvature="0"
         style="fill:#ffffff" />
      <path
         id="path916"
         d="m 320.239,121.88 h 4.44 c 0.48,0 1.411,-0.15 2.792,-0.45 0.693,-0.136 1.263,-0.48 1.704,-1.039 0.442,-0.558 0.664,-1.195 0.664,-1.915 0,-1.066 -0.348,-1.885 -1.046,-2.457 -0.696,-0.572 -2.006,-0.858 -3.927,-0.858 h -4.628 v 6.719 M 309.68,143 v -34.56 h 17.528 c 3.256,0 5.741,0.277 7.459,0.832 1.717,0.556 3.103,1.582 4.154,3.082 1.054,1.5 1.578,3.325 1.578,5.475 0,1.881 -0.408,3.5 -1.229,4.859 -0.819,1.361 -1.948,2.467 -3.383,3.316 -0.916,0.535 -2.168,0.98 -3.757,1.335 1.224,0.449 2.117,0.899 2.677,1.349 0.381,0.307 0.93,0.952 1.651,1.937 0.719,0.984 1.198,1.745 1.44,2.28 L 343.28,143 h -11.737 l -5.887,-10.845 c -0.715,-1.406 -1.352,-2.315 -1.906,-2.729 -0.759,-0.551 -1.62,-0.825 -2.579,-0.825 h -0.932 V 143 Z"
         inkscape:connector-curvature="0"
         style="fill:#ffffff" />
      <path
         id="path918"
         d="m 362.961,131.48 c -1.25,0.445 -2.55,0.837 -3.901,1.177 -1.844,0.491 -3.012,0.972 -3.502,1.448 -0.504,0.489 -0.756,1.047 -0.756,1.672 0,0.711 0.248,1.292 0.745,1.743 0.497,0.453 1.229,0.68 2.195,0.68 1.013,0 1.953,-0.246 2.821,-0.735 0.869,-0.489 1.484,-1.087 1.851,-1.793 0.363,-0.704 0.547,-1.62 0.547,-2.743 v -1.449 m -7.2,-4.8 -9.6,-0.96 c 0.339,-1.695 0.83,-3.031 1.469,-4.005 0.641,-0.976 1.563,-1.82 2.769,-2.535 0.864,-0.515 2.054,-0.913 3.565,-1.195 1.513,-0.282 3.149,-0.425 4.908,-0.425 2.826,0 5.097,0.16 6.811,0.48 1.716,0.319 3.143,0.988 4.283,2.003 0.805,0.704 1.438,1.7 1.901,2.988 0.462,1.288 0.692,2.517 0.692,3.687 v 10.988 c 0,1.169 0.076,2.086 0.222,2.751 0.148,0.665 0.472,1.512 0.972,2.543 h -9.18 c -0.37,-0.651 -0.609,-1.146 -0.725,-1.485 -0.111,-0.34 -0.224,-0.874 -0.333,-1.605 -1.226,1.191 -2.442,2.04 -3.653,2.551 -1.654,0.681 -3.577,1.021 -5.766,1.021 -2.912,0 -5.12,-0.672 -6.631,-2.019 -1.51,-1.345 -2.266,-3.002 -2.266,-4.973 0,-1.849 0.545,-3.369 1.628,-4.56 1.086,-1.195 3.089,-2.082 6.015,-2.661 3.5,-0.701 5.771,-1.193 6.811,-1.476 1.039,-0.282 2.144,-0.652 3.308,-1.113 0,-1.065 -0.211,-1.81 -0.634,-2.238 -0.424,-0.429 -1.163,-0.642 -2.225,-0.642 -1.357,0 -2.38,0.246 -3.06,0.735 -0.529,0.379 -0.956,1.094 -1.281,2.145 z"
         inkscape:connector-curvature="0"
         style="fill:#ffffff" />
      <path
         id="path920"
         d="m 378.802,118.04 h 9.6 V 143 h -9.6 v -24.96 m 0,-9.6 h 9.6 v 6.72 h -9.6 z"
         inkscape:connector-curvature="0"
         style="fill:#ffffff" />
      <polyline
         id="polyline922"
         points="394.641,108.44 404.242,108.44 404.242,143 394.641,143 394.641,108.44  "
         style="fill:#ffffff" />
      <path
         id="path924"
         d="m 408.56,136.28 9.601,-0.96 c 0.34,1.028 0.816,1.769 1.434,2.212 0.614,0.445 1.433,0.668 2.452,0.668 1.119,0 1.988,-0.268 2.603,-0.803 0.474,-0.395 0.714,-0.889 0.714,-1.477 0,-0.672 -0.197,-1.189 -0.586,-1.553 -0.28,-0.26 -1.531,-0.58 -3.75,-0.961 -3.32,-0.564 -5.627,-1.094 -6.916,-1.586 -1.29,-0.492 -2.377,-1.324 -3.262,-2.493 -0.885,-1.171 -1.328,-2.503 -1.328,-3.999 0,-1.641 0.476,-3.052 1.425,-4.236 0.949,-1.186 2.258,-2.07 3.922,-2.655 1.667,-0.586 3.901,-0.878 6.706,-0.878 2.961,0 5.146,0.229 6.555,0.687 1.408,0.458 2.586,1.167 3.525,2.13 0.94,0.963 1.723,2.265 2.347,3.904 l -9.601,0.959 c -0.209,-0.764 -0.56,-1.325 -1.048,-1.68 -0.672,-0.48 -1.479,-0.72 -2.425,-0.72 -0.963,0 -1.666,0.187 -2.106,0.559 -0.44,0.372 -0.66,0.827 -0.66,1.362 0,0.588 0.297,1.036 0.894,1.342 0.59,0.305 1.931,0.58 4.027,0.826 3.18,0.349 5.543,0.84 7.091,1.469 1.548,0.631 2.731,1.532 3.555,2.704 0.824,1.172 1.234,2.458 1.234,3.858 0,1.415 -0.433,2.793 -1.298,4.133 -0.863,1.34 -2.229,2.406 -4.09,3.197 -1.863,0.795 -4.4,1.19 -7.609,1.19 -4.542,0 -7.773,-0.626 -9.698,-1.875 -1.928,-1.25 -3.163,-3.025 -3.708,-5.324"
         inkscape:connector-curvature="0"
         style="fill:#ffffff" />
      <path
         id="path926"
         d="M 137.58,260 244.422,372.368 193.32,260 Z m 69.828,0 48.916,111.198 L 305.242,260 Z m 164.118,0 H 319.329 L 268.367,372.368 Z M 213.488,247.105 h 87.733 l -43.867,-45.819 z m 119.306,-49.737 h -63.891 l 43.776,45.725 z m -152.939,0 20.762,47.197 45.188,-47.197 z m 191.808,49.737 -28.111,-42.167 -18.551,42.167 z m -230.003,0 h 45.986 L 169.513,205.882 Z M 167.053,190 H 345.737 L 389.948,256.316 255.474,400 121,258.157 Z"
         inkscape:connector-curvature="0"
         style="fill:#ffffff" />
      <path
         id="path928"
         stroke-miterlimit="10"
         d="M 137.58,260 244.422,372.368 193.32,260 Z m 69.828,0 48.916,111.198 L 305.242,260 Z m 164.118,0 H 319.329 L 268.367,372.368 Z M 213.488,247.105 h 87.733 l -43.867,-45.819 z m 119.306,-49.737 h -63.891 l 43.776,45.725 z m -152.939,0 20.762,47.197 45.188,-47.197 z m 191.808,49.737 -28.111,-42.167 -18.551,42.167 z m -230.003,0 h 45.986 L 169.513,205.882 Z M 167.053,190 H 345.737 L 389.948,256.316 255.474,400 121,258.157 Z"
         inkscape:connector-curvature="0"
         style="fill:none;stroke:#ffffff;stroke-width:3;stroke-linejoin:round;stroke-miterlimit:10" />
    </g>
  </g>
</svg>
